<svg clip-rule="evenodd" fill-rule="evenodd" stroke-linejoin="round" stroke-miterlimit="2" viewBox="0 0 560 400" xmlns="http://www.w3.org/2000/svg"><g transform="matrix(.616016 0 0 .616016 72.8029 155)"><path d="m68.4 110s-7.1-8.7-11.3-13.4l-5.9 13.9c8.5 12.6 14.1 23.5 17.2 28.7 6-10.2 20.7-40.4 51-68.7l-3.4-7.9c-19.7 14.6-36.5 33.2-47.6 47.4" fill="#059bd2" fill-rule="nonzero"/><path d="m372 112.9c0 8.1 4.7 12.3 12.2 13.5v19.7c-22.4-.3-34.3-11.1-34.3-31.6v-114.5h22.1zm69.4-70.3c13.2 0 22.3 3.8 29 9.3l1-.4v-6.9h22.2v98.8h-22.2v-10.1l-1.2-.4c-6.4 7.4-17.2 12.5-30.7 12.5-26.5 0-47.7-22.7-47.7-51.4s21.9-51.4 49.6-51.4zm2.7 84.3c11.1 0 21.4-4.2 27.1-15v-42.3c-6.7-5.1-16.2-8.3-27.1-8.3-16.6 0-30.3 14.2-30.3 32.8 0 18.4 13.7 32.8 30.3 32.8zm67.7 16.8v-99.1h22.1v11.2l1.2.4c6.5-7.9 16.6-13.6 28.7-13.6h2.8v20.2h-4.7c-11.3 0-21 4.6-27.9 11.7v69.2zm-232.1-101.1c13.2 0 22.3 3.8 28.9 9.3l1-.4v-6.9h22.2v98.8h-22.2v-10.1l-1.2-.4c-6.4 7.4-17.3 12.5-30.7 12.5-26.5 0-47.7-22.7-47.7-51.4 0-28.6 22-51.4 49.7-51.4zm2.7 84.3c11.1 0 21.4-4.2 27.1-15v-42.3c-6.7-5.1-16.2-8.3-27.1-8.3-16.7 0-30.3 14.2-30.3 32.8 0 18.4 13.7 32.8 30.3 32.8zm338.1-84.3c13.2 0 22.3 3.8 29 9.3l1-.4v-6.9h22.2v98.8h-22.2v-10.1l-1.2-.4c-6.4 7.4-17.3 12.5-30.7 12.5-26.5 0-47.7-22.7-47.7-51.4s21.9-51.4 49.6-51.4zm2.7 84.3c11.1 0 21.4-4.2 27.1-15v-42.3c-6.7-5.1-16.2-8.3-27.1-8.3-16.6 0-30.2 14.2-30.2 32.8 0 18.4 13.6 32.8 30.2 32.8zm-510.6 16.4-13.3-31.5c4.7-6.2 10-12.7 16.2-19.3l21.2 50.8zm95.8-98.6h23.8l-44.1 98.6h-22.5l-44.1-98.6h23.9l30.9 72.3h1.2zm-129.5-39.4 22.2 52.8c-6.3 5.1-12.3 10.5-17.8 16l-12.4-29.2-2-5.3h-1.1l-2 5.3-41.7 98.4h-24.1l57.7-138z" fill="#fc6600"/></g></svg>