<svg clip-rule="evenodd" fill-rule="evenodd" stroke-linejoin="round" stroke-miterlimit="2" viewBox="0 0 560 400" xmlns="http://www.w3.org/2000/svg"><g transform="matrix(5.17345 0 0 5.17345 100 122.398)"><path d="m35.1 0h3.004v30h-3.004zm8.58 2.162c0-1.194.952-2.162 2.128-2.162s2.13.968 2.13 2.162c0 1.195-.954 2.163-2.13 2.163s-2.13-.968-2.13-2.163zm15.532 16.614 10.091-9.712h-4.332l-8.872 8.538v-17.602h-3.004v30h3.005v-10.166l9.394 10.166h4.092zm-14.905-9.712h3.004v20.934h-3.004zm-41.3 5.936c0 6.598 5.267 11.948 11.766 11.948v-.003c2.464.001 4.865-.784 6.853-2.24l2.071 2.243c-2.554 1.978-5.694 3.051-8.924 3.049-8.158.001-14.773-6.715-14.773-14.999-.007-3.589 1.269-7.065 3.596-9.797l2.069 2.238c-1.726 2.141-2.665 4.811-2.659 7.561z" fill="#54565a"/><path d="m25.88 24.885c2.371-2.746 3.672-6.257 3.663-9.885.001-8.285-6.611-15-14.769-15-3.268-.002-6.442 1.097-9.01 3.118-.791.62-1.518 1.317-2.169 2.082l2.07 2.238c.631-.783 1.359-1.483 2.166-2.083 2.005-1.497 4.441-2.305 6.943-2.303 6.5 0 11.768 5.35 11.768 11.948 0 2.909-1.026 5.575-2.728 7.648-.638.777-1.373 1.47-2.186 2.062l2.07 2.242 2.82 3.048h4.092l-4.728-5.115z" fill="#009845" fill-rule="nonzero"/></g></svg>